# xmcd
#
# Track frame offsets:
#	150
#	17925
#	31914
#	44127
#	57009
#	72180
#	88417
#	102448
#	115721
#	134405
#	145373
#	160754
#	177099
#	197859
#	216954
#	227982
#	238869
#	255586
#	268849
#	277415
#	292686
#	304269
#	315541
#
# Disc length: 4388 seconds
#
# Revision: 1
# Processed by: cddbd v1.5.2PL0 Copyright (c) Steve Scherf et al.
# Submitted via: audiograbber 1.83.01
#
DISCID=66112217
DTITLE=Various Artist - Truckers, Kickers, Cowboy Angels The Blissed-Out Birth
DTITLE=Of Country Rock Vol.2
DYEAR=2014
DGENRE=Country
TTITLE0=The Byrds - Drug Store Truck Driving Man
TTITLE1=Flying Burrito Bros. - Christine's Tune
TTITLE2=Doug Sahm - Texas Me
TTITLE3=Glen Campbell - Galveston
TTITLE4=Bob Dylan - Lay, Lady Lay
TTITLE5=The Band - The Night They Drove Old Dixie down
TTITLE6=Flying Burrito Bros. - Wheels
TTITLE7=The Corvettes - Back Home Girl
TTITLE8=Doug Dillard and Gene Clark - Through the Morning, Through the Night
TTITLE9=Buck Owens - Who's Gonna Mow Your Grass
TTITLE10=Poco - Pickin' up the Pieces
TTITLE11=Doug Sahm - At the Crossroads
TTITLE12=The Band - Up on Cripple Creek
TTITLE13=Flying Burrito Bros. - Sin City
TTITLE14=The Corvettes - Level with Your Senses
TTITLE15=Linda Ronstadt - Silver Threads and Golden Needles
TTITLE16=Flying Burrito Bros. - Hot Burrito
TTITLE17=Elvis Presley - I'm Movin' on
TTITLE18=Sanland Bros. - Vaccination for the Blues
TTITLE19=Poco - Make Me Smile
TTITLE20=Linda Ronstadt - We Need a Whole Lot More Jesus
TTITLE21=Townes van Zandt - Lungs
TTITLE22=Kenny Rogers - Ruby
EXTD=
EXTT0=
EXTT1=
EXTT2=
EXTT3=
EXTT4=
EXTT5=
EXTT6=
EXTT7=
EXTT8=
EXTT9=
EXTT10=
EXTT11=
EXTT12=
EXTT13=
EXTT14=
EXTT15=
EXTT16=
EXTT17=
EXTT18=
EXTT19=
EXTT20=
EXTT21=
EXTT22=
PLAYORDER=
